<mxfile host="Electron" modified="2023-07-29T21:06:15.146Z" agent="Mozilla/5.0 (Windows NT 10.0; Win64; x64) AppleWebKit/537.36 (KHTML, like Gecko) draw.io/21.2.8 Chrome/112.0.5615.165 Electron/24.2.0 Safari/537.36" etag="s60DIRSo9E1Gm77nA_8I" version="21.2.8" type="device">
  <diagram name="Page-1" id="pAPFgzeZnxpnzW7eHLt6">
    <mxGraphModel dx="1038" dy="608" grid="1" gridSize="10" guides="1" tooltips="1" connect="1" arrows="1" fold="1" page="1" pageScale="1" pageWidth="850" pageHeight="1100" math="0" shadow="0">
      <root>
        <mxCell id="0" />
        <mxCell id="1" parent="0" />
        <mxCell id="aNOov15gaQ0PGg3cEi84-2" value="&lt;font face=&quot;Verdana&quot; color=&quot;#8cb5ee&quot;&gt;&lt;b&gt;Developer Group&lt;/b&gt;&lt;/font&gt;" style="rounded=1;whiteSpace=wrap;html=1;fillColor=none;strokeColor=#6c8ebf;dashed=1;verticalAlign=top;labelPosition=center;verticalLabelPosition=middle;align=center;sketch=1;curveFitting=1;jiggle=2;" vertex="1" parent="1">
          <mxGeometry x="119.99" y="60" width="160" height="170" as="geometry" />
        </mxCell>
        <mxCell id="aNOov15gaQ0PGg3cEi84-3" value="" style="sketch=0;outlineConnect=0;fontColor=#232F3E;gradientColor=none;fillColor=#8CB5EE;strokeColor=none;dashed=0;verticalLabelPosition=bottom;verticalAlign=top;align=center;html=1;fontSize=12;fontStyle=0;aspect=fixed;pointerEvents=1;shape=mxgraph.aws4.permissions;" vertex="1" parent="1">
          <mxGeometry x="139.1" y="100" width="31.79" height="40" as="geometry" />
        </mxCell>
        <mxCell id="aNOov15gaQ0PGg3cEi84-4" value="" style="sketch=0;outlineConnect=0;fontColor=#232F3E;gradientColor=none;fillColor=#8CB5EE;strokeColor=none;dashed=0;verticalLabelPosition=bottom;verticalAlign=top;align=center;html=1;fontSize=12;fontStyle=0;aspect=fixed;pointerEvents=1;shape=mxgraph.aws4.permissions;" vertex="1" parent="1">
          <mxGeometry x="183.21" y="100" width="31.79" height="40" as="geometry" />
        </mxCell>
        <mxCell id="aNOov15gaQ0PGg3cEi84-5" value="" style="sketch=0;outlineConnect=0;fontColor=#232F3E;gradientColor=none;fillColor=#8CB5EE;strokeColor=none;dashed=0;verticalLabelPosition=bottom;verticalAlign=top;align=center;html=1;fontSize=12;fontStyle=0;aspect=fixed;pointerEvents=1;shape=mxgraph.aws4.permissions;" vertex="1" parent="1">
          <mxGeometry x="229.1" y="100" width="31.79" height="40" as="geometry" />
        </mxCell>
        <mxCell id="aNOov15gaQ0PGg3cEi84-6" value="" style="shape=curlyBracket;whiteSpace=wrap;html=1;rounded=1;flipH=1;labelPosition=right;verticalLabelPosition=middle;align=left;verticalAlign=middle;sketch=1;curveFitting=1;jiggle=2;rotation=90;strokeColor=#8CB5EE;size=0.5;" vertex="1" parent="1">
          <mxGeometry x="189.98999999999998" y="100" width="20" height="120" as="geometry" />
        </mxCell>
        <mxCell id="aNOov15gaQ0PGg3cEi84-9" value="&lt;font color=&quot;#8cb5ee&quot;&gt;&lt;b&gt;Permissions to&amp;nbsp;&lt;br&gt;access cloud data,&amp;nbsp;&lt;br&gt;resources, and APIs&lt;br&gt;&lt;/b&gt;&lt;/font&gt;" style="text;html=1;align=center;verticalAlign=middle;resizable=0;points=[];autosize=1;strokeColor=none;fillColor=none;" vertex="1" parent="1">
          <mxGeometry x="129.10999999999999" y="170" width="140" height="60" as="geometry" />
        </mxCell>
        <mxCell id="aNOov15gaQ0PGg3cEi84-28" value="&lt;font color=&quot;#8cb5ee&quot; face=&quot;Verdana&quot;&gt;&lt;b&gt;Devops Group&lt;/b&gt;&lt;/font&gt;" style="rounded=1;whiteSpace=wrap;html=1;fillColor=none;strokeColor=#6c8ebf;dashed=1;verticalAlign=top;labelPosition=center;verticalLabelPosition=middle;align=center;sketch=1;curveFitting=1;jiggle=2;" vertex="1" parent="1">
          <mxGeometry x="319.98" y="60" width="160" height="170" as="geometry" />
        </mxCell>
        <mxCell id="aNOov15gaQ0PGg3cEi84-29" value="" style="sketch=0;outlineConnect=0;fontColor=#232F3E;gradientColor=none;fillColor=#8CB5EE;strokeColor=none;dashed=0;verticalLabelPosition=bottom;verticalAlign=top;align=center;html=1;fontSize=12;fontStyle=0;aspect=fixed;pointerEvents=1;shape=mxgraph.aws4.permissions;" vertex="1" parent="1">
          <mxGeometry x="339.08000000000004" y="100" width="31.79" height="40" as="geometry" />
        </mxCell>
        <mxCell id="aNOov15gaQ0PGg3cEi84-30" value="" style="sketch=0;outlineConnect=0;fontColor=#232F3E;gradientColor=none;fillColor=#8CB5EE;strokeColor=none;dashed=0;verticalLabelPosition=bottom;verticalAlign=top;align=center;html=1;fontSize=12;fontStyle=0;aspect=fixed;pointerEvents=1;shape=mxgraph.aws4.permissions;" vertex="1" parent="1">
          <mxGeometry x="384.09000000000003" y="100" width="31.79" height="40" as="geometry" />
        </mxCell>
        <mxCell id="aNOov15gaQ0PGg3cEi84-31" value="" style="sketch=0;outlineConnect=0;fontColor=#232F3E;gradientColor=none;fillColor=#8CB5EE;strokeColor=none;dashed=0;verticalLabelPosition=bottom;verticalAlign=top;align=center;html=1;fontSize=12;fontStyle=0;aspect=fixed;pointerEvents=1;shape=mxgraph.aws4.permissions;" vertex="1" parent="1">
          <mxGeometry x="430.00000000000006" y="100" width="31.79" height="40" as="geometry" />
        </mxCell>
        <mxCell id="aNOov15gaQ0PGg3cEi84-32" value="" style="shape=curlyBracket;whiteSpace=wrap;html=1;rounded=1;flipH=1;labelPosition=right;verticalLabelPosition=middle;align=left;verticalAlign=middle;sketch=1;curveFitting=1;jiggle=2;rotation=90;strokeColor=#8CB5EE;" vertex="1" parent="1">
          <mxGeometry x="389.09000000000003" y="100" width="20" height="120" as="geometry" />
        </mxCell>
        <mxCell id="aNOov15gaQ0PGg3cEi84-33" value="&lt;b&gt;&lt;font color=&quot;#8cb5ee&quot;&gt;Permissions to provision&lt;br&gt;modify, and delete&amp;nbsp;&lt;br&gt;cloud infrastructure.&lt;br&gt;&lt;/font&gt;&lt;/b&gt;" style="text;html=1;align=center;verticalAlign=middle;resizable=0;points=[];autosize=1;strokeColor=none;fillColor=none;" vertex="1" parent="1">
          <mxGeometry x="314.99" y="170" width="170" height="60" as="geometry" />
        </mxCell>
        <mxCell id="aNOov15gaQ0PGg3cEi84-35" value="&lt;font color=&quot;#8cb5ee&quot; face=&quot;Verdana&quot;&gt;&lt;b&gt;Admin Group&lt;/b&gt;&lt;/font&gt;" style="rounded=1;whiteSpace=wrap;html=1;fillColor=none;strokeColor=#6c8ebf;dashed=1;verticalAlign=top;labelPosition=center;verticalLabelPosition=middle;align=center;sketch=1;curveFitting=1;jiggle=2;" vertex="1" parent="1">
          <mxGeometry x="519.98" y="60" width="160" height="170" as="geometry" />
        </mxCell>
        <mxCell id="aNOov15gaQ0PGg3cEi84-36" value="" style="sketch=0;outlineConnect=0;fontColor=#232F3E;gradientColor=none;fillColor=#8CB5EE;strokeColor=none;dashed=0;verticalLabelPosition=bottom;verticalAlign=top;align=center;html=1;fontSize=12;fontStyle=0;aspect=fixed;pointerEvents=1;shape=mxgraph.aws4.permissions;" vertex="1" parent="1">
          <mxGeometry x="539.08" y="100" width="31.79" height="40" as="geometry" />
        </mxCell>
        <mxCell id="aNOov15gaQ0PGg3cEi84-37" value="" style="sketch=0;outlineConnect=0;fontColor=#232F3E;gradientColor=none;fillColor=#8CB5EE;strokeColor=none;dashed=0;verticalLabelPosition=bottom;verticalAlign=top;align=center;html=1;fontSize=12;fontStyle=0;aspect=fixed;pointerEvents=1;shape=mxgraph.aws4.permissions;" vertex="1" parent="1">
          <mxGeometry x="584.08" y="100" width="31.79" height="40" as="geometry" />
        </mxCell>
        <mxCell id="aNOov15gaQ0PGg3cEi84-38" value="" style="sketch=0;outlineConnect=0;fontColor=#232F3E;gradientColor=none;fillColor=#8CB5EE;strokeColor=none;dashed=0;verticalLabelPosition=bottom;verticalAlign=top;align=center;html=1;fontSize=12;fontStyle=0;aspect=fixed;pointerEvents=1;shape=mxgraph.aws4.permissions;" vertex="1" parent="1">
          <mxGeometry x="629.08" y="100" width="31.79" height="40" as="geometry" />
        </mxCell>
        <mxCell id="aNOov15gaQ0PGg3cEi84-39" value="" style="shape=curlyBracket;whiteSpace=wrap;html=1;rounded=1;flipH=1;labelPosition=right;verticalLabelPosition=middle;align=left;verticalAlign=middle;sketch=1;curveFitting=1;jiggle=2;rotation=90;strokeColor=#8CB5EE;" vertex="1" parent="1">
          <mxGeometry x="589.97" y="100" width="20" height="120" as="geometry" />
        </mxCell>
        <mxCell id="aNOov15gaQ0PGg3cEi84-40" value="&lt;b&gt;&lt;font color=&quot;#8cb5ee&quot;&gt;Permissions which&lt;br&gt;allow full access&lt;br&gt;to AWS account&lt;br&gt;&lt;/font&gt;&lt;/b&gt;" style="text;html=1;align=center;verticalAlign=middle;resizable=0;points=[];autosize=1;strokeColor=none;fillColor=none;" vertex="1" parent="1">
          <mxGeometry x="534.97" y="170" width="130" height="60" as="geometry" />
        </mxCell>
        <mxCell id="aNOov15gaQ0PGg3cEi84-46" style="rounded=1;orthogonalLoop=1;jettySize=auto;html=1;entryX=0.5;entryY=1;entryDx=0;entryDy=0;sketch=1;curveFitting=1;jiggle=2;strokeColor=#8CB5EE;startArrow=classic;startFill=1;" edge="1" parent="1" source="aNOov15gaQ0PGg3cEi84-41" target="aNOov15gaQ0PGg3cEi84-2">
          <mxGeometry relative="1" as="geometry" />
        </mxCell>
        <mxCell id="aNOov15gaQ0PGg3cEi84-41" value="&lt;b&gt;Developer&lt;/b&gt;" style="sketch=1;outlineConnect=0;fontColor=#8CB5EE;gradientColor=none;fillColor=#8CB5EE;strokeColor=none;dashed=0;verticalLabelPosition=bottom;verticalAlign=top;align=center;html=1;fontSize=12;fontStyle=0;aspect=fixed;pointerEvents=1;shape=mxgraph.aws4.user;curveFitting=1;jiggle=2;" vertex="1" parent="1">
          <mxGeometry x="175" y="290" width="50" height="50" as="geometry" />
        </mxCell>
        <mxCell id="aNOov15gaQ0PGg3cEi84-47" style="rounded=1;orthogonalLoop=1;jettySize=auto;html=1;entryX=0.75;entryY=1;entryDx=0;entryDy=0;sketch=1;curveFitting=1;jiggle=2;strokeColor=#8CB5EE;startArrow=classic;startFill=1;" edge="1" parent="1" source="aNOov15gaQ0PGg3cEi84-42" target="aNOov15gaQ0PGg3cEi84-2">
          <mxGeometry relative="1" as="geometry">
            <Array as="points" />
          </mxGeometry>
        </mxCell>
        <mxCell id="aNOov15gaQ0PGg3cEi84-48" style="edgeStyle=orthogonalEdgeStyle;rounded=0;orthogonalLoop=1;jettySize=auto;html=1;entryX=0.5;entryY=1;entryDx=0;entryDy=0;sketch=1;curveFitting=1;jiggle=2;strokeColor=#8CB5EE;startArrow=classic;startFill=1;" edge="1" parent="1" source="aNOov15gaQ0PGg3cEi84-42" target="aNOov15gaQ0PGg3cEi84-28">
          <mxGeometry relative="1" as="geometry" />
        </mxCell>
        <mxCell id="aNOov15gaQ0PGg3cEi84-42" value="&lt;b&gt;Senior Developer&lt;/b&gt;" style="sketch=1;outlineConnect=0;fontColor=#8CB5EE;gradientColor=none;fillColor=#8CB5EE;strokeColor=none;dashed=0;verticalLabelPosition=bottom;verticalAlign=top;align=center;html=1;fontSize=12;fontStyle=0;aspect=fixed;pointerEvents=1;shape=mxgraph.aws4.user;curveFitting=1;jiggle=2;" vertex="1" parent="1">
          <mxGeometry x="374.98" y="290" width="50" height="50" as="geometry" />
        </mxCell>
        <mxCell id="aNOov15gaQ0PGg3cEi84-49" style="rounded=1;orthogonalLoop=1;jettySize=auto;html=1;entryX=0.5;entryY=1;entryDx=0;entryDy=0;sketch=1;curveFitting=1;jiggle=2;strokeColor=#8CB5EE;startArrow=classic;startFill=1;" edge="1" parent="1" source="aNOov15gaQ0PGg3cEi84-45" target="aNOov15gaQ0PGg3cEi84-35">
          <mxGeometry relative="1" as="geometry" />
        </mxCell>
        <mxCell id="aNOov15gaQ0PGg3cEi84-45" value="&lt;b&gt;Manager&lt;/b&gt;" style="sketch=1;outlineConnect=0;fontColor=#8CB5EE;gradientColor=none;fillColor=#8CB5EE;strokeColor=none;dashed=0;verticalLabelPosition=bottom;verticalAlign=top;align=center;html=1;fontSize=12;fontStyle=0;aspect=fixed;pointerEvents=1;shape=mxgraph.aws4.user;curveFitting=1;jiggle=2;" vertex="1" parent="1">
          <mxGeometry x="574.98" y="290" width="50" height="50" as="geometry" />
        </mxCell>
      </root>
    </mxGraphModel>
  </diagram>
</mxfile>
